<svg width="545" height="94" viewBox="0 0 545 94" fill="none" xmlns="http://www.w3.org/2000/svg">
<path d="M26.72 69.536C20.576 69.536 15.4133 68.384 11.232 66.08C7.136 63.6907 3.59467 60.5333 0.608 56.608L7.904 50.72C10.464 53.9627 13.3227 56.48 16.48 58.272C19.6373 59.9787 23.3067 60.832 27.488 60.832C31.84 60.832 35.2107 59.8933 37.6 58.016C40.0747 56.1387 41.312 53.4933 41.312 50.08C41.312 47.52 40.4587 45.344 38.752 43.552C37.1307 41.6747 34.144 40.3947 29.792 39.712L24.544 38.944C21.472 38.5173 18.656 37.8773 16.096 37.024C13.536 36.0853 11.2747 34.8907 9.312 33.44C7.43467 31.904 5.94133 30.0267 4.832 27.808C3.808 25.5893 3.296 22.944 3.296 19.872C3.296 16.6293 3.89333 13.8133 5.088 11.424C6.28267 8.94933 7.904 6.90133 9.952 5.28C12.0853 3.65867 14.6027 2.464 17.504 1.696C20.4053 0.842667 23.52 0.416 26.848 0.416C32.224 0.416 36.704 1.35467 40.288 3.23199C43.9573 5.10933 47.1573 7.712 49.888 11.04L43.104 17.184C41.6533 15.136 39.52 13.3013 36.704 11.68C33.888 9.97333 30.3467 9.12 26.08 9.12C21.8133 9.12 18.5707 10.0587 16.352 11.936C14.2187 13.728 13.152 16.2027 13.152 19.36C13.152 22.6027 14.2187 24.9493 16.352 26.4C18.5707 27.8507 21.728 28.9173 25.824 29.6L30.944 30.368C38.2827 31.4773 43.488 33.6107 46.56 36.768C49.632 39.84 51.168 43.8933 51.168 48.928C51.168 55.328 48.992 60.3627 44.64 64.032C40.288 67.7013 34.3147 69.536 26.72 69.536ZM69.255 1.952H79.495V12.704H80.007C81.7137 8.52266 84.1883 5.45066 87.431 3.488C90.759 1.44 94.727 0.416 99.335 0.416C103.431 0.416 107.143 1.22667 110.471 2.848C113.799 4.46933 116.615 6.77333 118.919 9.76C121.308 12.7467 123.1 16.3733 124.295 20.64C125.575 24.9067 126.215 29.6853 126.215 34.976C126.215 40.2667 125.575 45.0453 124.295 49.312C123.1 53.5787 121.308 57.2053 118.919 60.192C116.615 63.1787 113.799 65.4827 110.471 67.104C107.143 68.7253 103.431 69.536 99.335 69.536C90.375 69.536 83.9323 65.44 80.007 57.248H79.495V93.6H69.255V1.952ZM96.519 60.32C102.322 60.32 106.887 58.528 110.215 54.944C113.543 51.2747 115.207 46.496 115.207 40.608V29.344C115.207 23.456 113.543 18.72 110.215 15.136C106.887 11.4667 102.322 9.632 96.519 9.632C94.215 9.632 91.9963 9.97333 89.863 10.656C87.815 11.2533 86.023 12.1067 84.487 13.216C82.951 14.3253 81.7137 15.6907 80.775 17.312C79.9217 18.848 79.495 20.512 79.495 22.304V46.88C79.495 49.0133 79.9217 50.9333 80.775 52.64C81.7137 54.2613 82.951 55.6693 84.487 56.864C86.023 57.9733 87.815 58.8267 89.863 59.424C91.9963 60.0213 94.215 60.32 96.519 60.32Z" fill="black" fill-opacity="0.5"/>
<path d="M168.337 69.536C163.814 69.536 159.718 68.7253 156.049 67.104C152.465 65.4827 149.35 63.1787 146.705 60.192C144.145 57.12 142.14 53.4933 140.689 49.312C139.324 45.0453 138.641 40.2667 138.641 34.976C138.641 29.7707 139.324 25.0347 140.689 20.768C142.14 16.5013 144.145 12.8747 146.705 9.888C149.35 6.816 152.465 4.46933 156.049 2.848C159.718 1.22667 163.814 0.416 168.337 0.416C172.774 0.416 176.742 1.22667 180.241 2.848C183.74 4.46933 186.726 6.73066 189.201 9.632C191.676 12.448 193.553 15.8187 194.833 19.744C196.198 23.6693 196.881 27.9787 196.881 32.672V37.536H149.393V40.608C149.393 43.424 149.82 46.0693 150.673 48.544C151.612 50.9333 152.892 53.024 154.513 54.816C156.22 56.608 158.268 58.016 160.657 59.04C163.132 60.064 165.905 60.576 168.977 60.576C173.158 60.576 176.785 59.5947 179.857 57.632C183.014 55.6693 185.446 52.8533 187.153 49.184L194.449 54.432C192.316 58.9547 188.988 62.624 184.465 65.44C179.942 68.1707 174.566 69.536 168.337 69.536ZM168.337 8.992C165.521 8.992 162.961 9.504 160.657 10.528C158.353 11.4667 156.348 12.832 154.641 14.624C153.02 16.416 151.74 18.5493 150.801 21.024C149.862 23.4133 149.393 26.0587 149.393 28.96V29.856H185.873V28.448C185.873 22.56 184.252 17.8667 181.009 14.368C177.852 10.784 173.628 8.992 168.337 8.992ZM213.755 68V1.952H223.995V12.704H224.507C226.128 8.94933 228.39 5.96266 231.291 3.744C234.278 1.52533 238.246 0.416 243.195 0.416C250.022 0.416 255.398 2.63467 259.323 7.072C263.334 11.424 265.339 17.6107 265.339 25.632V68H255.099V27.424C255.099 15.5627 250.107 9.632 240.123 9.632C238.075 9.632 236.07 9.888 234.107 10.4C232.23 10.912 230.523 11.68 228.987 12.704C227.451 13.728 226.214 15.0507 225.275 16.672C224.422 18.208 223.995 20.0427 223.995 22.176V68H213.755ZM306.345 69.536C300.201 69.536 295.038 68.384 290.857 66.08C286.761 63.6907 283.22 60.5333 280.233 56.608L287.529 50.72C290.089 53.9627 292.948 56.48 296.105 58.272C299.262 59.9787 302.932 60.832 307.113 60.832C311.465 60.832 314.836 59.8933 317.225 58.016C319.7 56.1387 320.937 53.4933 320.937 50.08C320.937 47.52 320.084 45.344 318.377 43.552C316.756 41.6747 313.769 40.3947 309.417 39.712L304.169 38.944C301.097 38.5173 298.281 37.8773 295.721 37.024C293.161 36.0853 290.9 34.8907 288.937 33.44C287.06 31.904 285.566 30.0267 284.457 27.808C283.433 25.5893 282.921 22.944 282.921 19.872C282.921 16.6293 283.518 13.8133 284.713 11.424C285.908 8.94933 287.529 6.90133 289.577 5.28C291.71 3.65867 294.228 2.464 297.129 1.696C300.03 0.842667 303.145 0.416 306.473 0.416C311.849 0.416 316.329 1.35467 319.913 3.23199C323.582 5.10933 326.782 7.712 329.513 11.04L322.729 17.184C321.278 15.136 319.145 13.3013 316.329 11.68C313.513 9.97333 309.972 9.12 305.705 9.12C301.438 9.12 298.196 10.0587 295.977 11.936C293.844 13.728 292.777 16.2027 292.777 19.36C292.777 22.6027 293.844 24.9493 295.977 26.4C298.196 27.8507 301.353 28.9173 305.449 29.6L310.569 30.368C317.908 31.4773 323.113 33.6107 326.185 36.768C329.257 39.84 330.793 43.8933 330.793 48.928C330.793 55.328 328.617 60.3627 324.265 64.032C319.913 67.7013 313.94 69.536 306.345 69.536ZM373.84 69.536C369.403 69.536 365.349 68.7253 361.68 67.104C358.011 65.4827 354.853 63.1787 352.208 60.192C349.648 57.12 347.643 53.4933 346.192 49.312C344.741 45.0453 344.016 40.2667 344.016 34.976C344.016 29.7707 344.741 25.0347 346.192 20.768C347.643 16.5013 349.648 12.8747 352.208 9.888C354.853 6.816 358.011 4.46933 361.68 2.848C365.349 1.22667 369.403 0.416 373.84 0.416C378.277 0.416 382.288 1.22667 385.872 2.848C389.541 4.46933 392.699 6.816 395.344 9.888C397.989 12.8747 400.037 16.5013 401.488 20.768C402.939 25.0347 403.664 29.7707 403.664 34.976C403.664 40.2667 402.939 45.0453 401.488 49.312C400.037 53.4933 397.989 57.12 395.344 60.192C392.699 63.1787 389.541 65.4827 385.872 67.104C382.288 68.7253 378.277 69.536 373.84 69.536ZM373.84 60.448C379.387 60.448 383.909 58.7413 387.408 55.328C390.907 51.9147 392.656 46.7093 392.656 39.712V30.24C392.656 23.2427 390.907 18.0373 387.408 14.624C383.909 11.2107 379.387 9.504 373.84 9.504C368.293 9.504 363.771 11.2107 360.272 14.624C356.773 18.0373 355.024 23.2427 355.024 30.24V39.712C355.024 46.7093 356.773 51.9147 360.272 55.328C363.771 58.7413 368.293 60.448 373.84 60.448ZM424.533 69.536C421.802 69.536 419.797 68.8533 418.517 67.488C417.322 66.1227 416.725 64.3307 416.725 62.112V60.448C416.725 58.2293 417.322 56.4373 418.517 55.072C419.797 53.7067 421.802 53.024 424.533 53.024C427.264 53.024 429.226 53.7067 430.421 55.072C431.701 56.4373 432.341 58.2293 432.341 60.448V62.112C432.341 64.3307 431.701 66.1227 430.421 67.488C429.226 68.8533 427.264 69.536 424.533 69.536ZM452.88 68V1.952H463.12V14.112H463.76C464.955 10.9547 467.088 8.13866 470.16 5.664C473.232 3.18933 477.456 1.952 482.832 1.952H486.8V12.192H480.784C475.237 12.192 470.885 13.2587 467.728 15.392C464.656 17.44 463.12 20.0427 463.12 23.2V68H452.88ZM519.72 69.536C513.576 69.536 508.413 68.384 504.232 66.08C500.136 63.6907 496.595 60.5333 493.608 56.608L500.904 50.72C503.464 53.9627 506.323 56.48 509.48 58.272C512.637 59.9787 516.307 60.832 520.488 60.832C524.84 60.832 528.211 59.8933 530.6 58.016C533.075 56.1387 534.312 53.4933 534.312 50.08C534.312 47.52 533.459 45.344 531.752 43.552C530.131 41.6747 527.144 40.3947 522.792 39.712L517.544 38.944C514.472 38.5173 511.656 37.8773 509.096 37.024C506.536 36.0853 504.275 34.8907 502.312 33.44C500.435 31.904 498.941 30.0267 497.832 27.808C496.808 25.5893 496.296 22.944 496.296 19.872C496.296 16.6293 496.893 13.8133 498.088 11.424C499.283 8.94933 500.904 6.90133 502.952 5.28C505.085 3.65867 507.603 2.464 510.504 1.696C513.405 0.842667 516.52 0.416 519.848 0.416C525.224 0.416 529.704 1.35467 533.288 3.23199C536.957 5.10933 540.157 7.712 542.888 11.04L536.104 17.184C534.653 15.136 532.52 13.3013 529.704 11.68C526.888 9.97333 523.347 9.12 519.08 9.12C514.813 9.12 511.571 10.0587 509.352 11.936C507.219 13.728 506.152 16.2027 506.152 19.36C506.152 22.6027 507.219 24.9493 509.352 26.4C511.571 27.8507 514.728 28.9173 518.824 29.6L523.944 30.368C531.283 31.4773 536.488 33.6107 539.56 36.768C542.632 39.84 544.168 43.8933 544.168 48.928C544.168 55.328 541.992 60.3627 537.64 64.032C533.288 67.7013 527.315 69.536 519.72 69.536Z" fill="black"/>
</svg>
