<svg width="52" height="10" viewBox="0 0 52 10" fill="none" xmlns="http://www.w3.org/2000/svg">
<path d="M2.88 7.144C2.304 7.144 1.82 7.036 1.428 6.82C1.044 6.596 0.712 6.3 0.432 5.932L1.116 5.38C1.356 5.684 1.624 5.92 1.92 6.088C2.216 6.248 2.56 6.328 2.952 6.328C3.36 6.328 3.676 6.24 3.9 6.064C4.132 5.888 4.248 5.64 4.248 5.32C4.248 5.08 4.168 4.876 4.008 4.708C3.856 4.532 3.576 4.412 3.168 4.348L2.676 4.276C2.388 4.236 2.124 4.176 1.884 4.096C1.644 4.008 1.432 3.896 1.248 3.76C1.072 3.616 0.932 3.44 0.828 3.232C0.732 3.024 0.684 2.776 0.684 2.488C0.684 2.184 0.74 1.92 0.852 1.696C0.964 1.464 1.116 1.272 1.308 1.12C1.508 0.968 1.744 0.856 2.016 0.784C2.288 0.704 2.58 0.664 2.892 0.664C3.396 0.664 3.816 0.752 4.152 0.927999C4.496 1.104 4.796 1.348 5.052 1.66L4.416 2.236C4.28 2.044 4.08 1.872 3.816 1.72C3.552 1.56 3.22 1.48 2.82 1.48C2.42 1.48 2.116 1.568 1.908 1.744C1.708 1.912 1.608 2.144 1.608 2.44C1.608 2.744 1.708 2.964 1.908 3.1C2.116 3.236 2.412 3.336 2.796 3.4L3.276 3.472C3.964 3.576 4.452 3.776 4.74 4.072C5.028 4.36 5.172 4.74 5.172 5.212C5.172 5.812 4.968 6.284 4.56 6.628C4.152 6.972 3.592 7.144 2.88 7.144ZM6.86766 0.808H7.82766V1.816H7.87566C8.03566 1.424 8.26766 1.136 8.57166 0.952C8.88366 0.76 9.25566 0.664 9.68766 0.664C10.0717 0.664 10.4197 0.74 10.7317 0.892C11.0437 1.044 11.3077 1.26 11.5237 1.54C11.7477 1.82 11.9157 2.16 12.0277 2.56C12.1477 2.96 12.2077 3.408 12.2077 3.904C12.2077 4.4 12.1477 4.848 12.0277 5.248C11.9157 5.648 11.7477 5.988 11.5237 6.268C11.3077 6.548 11.0437 6.764 10.7317 6.916C10.4197 7.068 10.0717 7.144 9.68766 7.144C8.84766 7.144 8.24366 6.76 7.87566 5.992H7.82766V9.4H6.86766V0.808ZM9.42366 6.28C9.96766 6.28 10.3957 6.112 10.7077 5.776C11.0197 5.432 11.1757 4.984 11.1757 4.432V3.376C11.1757 2.824 11.0197 2.38 10.7077 2.044C10.3957 1.7 9.96766 1.528 9.42366 1.528C9.20766 1.528 8.99966 1.56 8.79966 1.624C8.60766 1.68 8.43966 1.76 8.29566 1.864C8.15166 1.968 8.03566 2.096 7.94766 2.248C7.86766 2.392 7.82766 2.548 7.82766 2.716V5.02C7.82766 5.22 7.86766 5.4 7.94766 5.56C8.03566 5.712 8.15166 5.844 8.29566 5.956C8.43966 6.06 8.60766 6.14 8.79966 6.196C8.99966 6.252 9.20766 6.28 9.42366 6.28Z" fill="black" fill-opacity="0.5"/>
<path d="M16.1566 7.144C15.7326 7.144 15.3486 7.068 15.0046 6.916C14.6686 6.764 14.3766 6.548 14.1286 6.268C13.8886 5.98 13.7006 5.64 13.5646 5.248C13.4366 4.848 13.3726 4.4 13.3726 3.904C13.3726 3.416 13.4366 2.972 13.5646 2.572C13.7006 2.172 13.8886 1.832 14.1286 1.552C14.3766 1.264 14.6686 1.044 15.0046 0.892C15.3486 0.74 15.7326 0.664 16.1566 0.664C16.5726 0.664 16.9446 0.74 17.2726 0.892C17.6006 1.044 17.8806 1.256 18.1126 1.528C18.3446 1.792 18.5206 2.108 18.6406 2.476C18.7686 2.844 18.8326 3.248 18.8326 3.688V4.144H14.3806V4.432C14.3806 4.696 14.4206 4.944 14.5006 5.176C14.5886 5.4 14.7086 5.596 14.8606 5.764C15.0206 5.932 15.2126 6.064 15.4366 6.16C15.6686 6.256 15.9286 6.304 16.2166 6.304C16.6086 6.304 16.9486 6.212 17.2366 6.028C17.5326 5.844 17.7606 5.58 17.9206 5.236L18.6046 5.728C18.4046 6.152 18.0926 6.496 17.6686 6.76C17.2446 7.016 16.7406 7.144 16.1566 7.144ZM16.1566 1.468C15.8926 1.468 15.6526 1.516 15.4366 1.612C15.2206 1.7 15.0326 1.828 14.8726 1.996C14.7206 2.164 14.6006 2.364 14.5126 2.596C14.4246 2.82 14.3806 3.068 14.3806 3.34V3.424H17.8006V3.292C17.8006 2.74 17.6486 2.3 17.3446 1.972C17.0486 1.636 16.6526 1.468 16.1566 1.468ZM20.4145 7V0.808H21.3745V1.816H21.4225C21.5745 1.464 21.7865 1.184 22.0585 0.976C22.3385 0.768 22.7105 0.664 23.1745 0.664C23.8145 0.664 24.3185 0.872 24.6865 1.288C25.0625 1.696 25.2505 2.276 25.2505 3.028V7H24.2905V3.196C24.2905 2.084 23.8225 1.528 22.8865 1.528C22.6945 1.528 22.5065 1.552 22.3225 1.6C22.1465 1.648 21.9865 1.72 21.8425 1.816C21.6985 1.912 21.5825 2.036 21.4945 2.188C21.4145 2.332 21.3745 2.504 21.3745 2.704V7H20.4145ZM29.0948 7.144C28.5188 7.144 28.0348 7.036 27.6428 6.82C27.2588 6.596 26.9268 6.3 26.6468 5.932L27.3308 5.38C27.5708 5.684 27.8388 5.92 28.1348 6.088C28.4308 6.248 28.7748 6.328 29.1668 6.328C29.5748 6.328 29.8908 6.24 30.1148 6.064C30.3468 5.888 30.4628 5.64 30.4628 5.32C30.4628 5.08 30.3828 4.876 30.2228 4.708C30.0708 4.532 29.7908 4.412 29.3828 4.348L28.8908 4.276C28.6028 4.236 28.3388 4.176 28.0988 4.096C27.8588 4.008 27.6468 3.896 27.4628 3.76C27.2868 3.616 27.1468 3.44 27.0428 3.232C26.9468 3.024 26.8988 2.776 26.8988 2.488C26.8988 2.184 26.9548 1.92 27.0668 1.696C27.1788 1.464 27.3308 1.272 27.5228 1.12C27.7228 0.968 27.9588 0.856 28.2308 0.784C28.5028 0.704 28.7948 0.664 29.1068 0.664C29.6108 0.664 30.0308 0.752 30.3668 0.927999C30.7108 1.104 31.0108 1.348 31.2668 1.66L30.6308 2.236C30.4948 2.044 30.2948 1.872 30.0308 1.72C29.7668 1.56 29.4348 1.48 29.0348 1.48C28.6348 1.48 28.3308 1.568 28.1228 1.744C27.9228 1.912 27.8228 2.144 27.8228 2.44C27.8228 2.744 27.9228 2.964 28.1228 3.1C28.3308 3.236 28.6268 3.336 29.0108 3.4L29.4908 3.472C30.1788 3.576 30.6668 3.776 30.9548 4.072C31.2428 4.36 31.3868 4.74 31.3868 5.212C31.3868 5.812 31.1828 6.284 30.7748 6.628C30.3668 6.972 29.8068 7.144 29.0948 7.144ZM35.4225 7.144C35.0065 7.144 34.6265 7.068 34.2825 6.916C33.9385 6.764 33.6425 6.548 33.3945 6.268C33.1545 5.98 32.9665 5.64 32.8305 5.248C32.6945 4.848 32.6265 4.4 32.6265 3.904C32.6265 3.416 32.6945 2.972 32.8305 2.572C32.9665 2.172 33.1545 1.832 33.3945 1.552C33.6425 1.264 33.9385 1.044 34.2825 0.892C34.6265 0.74 35.0065 0.664 35.4225 0.664C35.8385 0.664 36.2145 0.74 36.5505 0.892C36.8945 1.044 37.1905 1.264 37.4385 1.552C37.6865 1.832 37.8785 2.172 38.0145 2.572C38.1505 2.972 38.2185 3.416 38.2185 3.904C38.2185 4.4 38.1505 4.848 38.0145 5.248C37.8785 5.64 37.6865 5.98 37.4385 6.268C37.1905 6.548 36.8945 6.764 36.5505 6.916C36.2145 7.068 35.8385 7.144 35.4225 7.144ZM35.4225 6.292C35.9425 6.292 36.3665 6.132 36.6945 5.812C37.0225 5.492 37.1865 5.004 37.1865 4.348V3.46C37.1865 2.804 37.0225 2.316 36.6945 1.996C36.3665 1.676 35.9425 1.516 35.4225 1.516C34.9025 1.516 34.4785 1.676 34.1505 1.996C33.8225 2.316 33.6585 2.804 33.6585 3.46V4.348C33.6585 5.004 33.8225 5.492 34.1505 5.812C34.4785 6.132 34.9025 6.292 35.4225 6.292ZM40.175 7.144C39.919 7.144 39.731 7.08 39.611 6.952C39.499 6.824 39.443 6.656 39.443 6.448V6.292C39.443 6.084 39.499 5.916 39.611 5.788C39.731 5.66 39.919 5.596 40.175 5.596C40.431 5.596 40.615 5.66 40.727 5.788C40.847 5.916 40.907 6.084 40.907 6.292V6.448C40.907 6.656 40.847 6.824 40.727 6.952C40.615 7.08 40.431 7.144 40.175 7.144ZM42.8325 7V0.808H43.7925V1.948H43.8525C43.9645 1.652 44.1645 1.388 44.4525 1.156C44.7405 0.924 45.1365 0.808 45.6405 0.808H46.0125V1.768H45.4485C44.9285 1.768 44.5205 1.868 44.2245 2.068C43.9365 2.26 43.7925 2.504 43.7925 2.8V7H42.8325ZM49.0988 7.144C48.5228 7.144 48.0388 7.036 47.6468 6.82C47.2628 6.596 46.9308 6.3 46.6508 5.932L47.3348 5.38C47.5748 5.684 47.8428 5.92 48.1388 6.088C48.4348 6.248 48.7788 6.328 49.1708 6.328C49.5788 6.328 49.8948 6.24 50.1188 6.064C50.3508 5.888 50.4668 5.64 50.4668 5.32C50.4668 5.08 50.3868 4.876 50.2268 4.708C50.0748 4.532 49.7948 4.412 49.3867 4.348L48.8948 4.276C48.6068 4.236 48.3428 4.176 48.1028 4.096C47.8628 4.008 47.6508 3.896 47.4668 3.76C47.2908 3.616 47.1508 3.44 47.0468 3.232C46.9508 3.024 46.9028 2.776 46.9028 2.488C46.9028 2.184 46.9588 1.92 47.0708 1.696C47.1828 1.464 47.3348 1.272 47.5268 1.12C47.7268 0.968 47.9628 0.856 48.2348 0.784C48.5068 0.704 48.7988 0.664 49.1108 0.664C49.6148 0.664 50.0348 0.752 50.3708 0.927999C50.7148 1.104 51.0148 1.348 51.2708 1.66L50.6348 2.236C50.4988 2.044 50.2988 1.872 50.0348 1.72C49.7708 1.56 49.4388 1.48 49.0388 1.48C48.6388 1.48 48.3348 1.568 48.1268 1.744C47.9268 1.912 47.8268 2.144 47.8268 2.44C47.8268 2.744 47.9268 2.964 48.1268 3.1C48.3348 3.236 48.6308 3.336 49.0148 3.4L49.4948 3.472C50.1828 3.576 50.6708 3.776 50.9588 4.072C51.2468 4.36 51.3908 4.74 51.3908 5.212C51.3908 5.812 51.1868 6.284 50.7788 6.628C50.3708 6.972 49.8108 7.144 49.0988 7.144Z" fill="black"/>
</svg>
