<svg width="637" height="232" viewBox="0 0 637 232" fill="none" xmlns="http://www.w3.org/2000/svg">
<rect width="637" height="232" rx="49" fill="#D9D9D9"/>
<path d="M69.9045 152.849C63.7605 152.849 58.5979 151.697 54.4165 149.393C50.3205 147.004 46.7792 143.847 43.7925 139.921L51.0885 134.033C53.6485 137.276 56.5072 139.793 59.6645 141.585C62.8219 143.292 66.4912 144.145 70.6725 144.145C75.0245 144.145 78.3952 143.207 80.7845 141.329C83.2592 139.452 84.4965 136.807 84.4965 133.393C84.4965 130.833 83.6432 128.657 81.9365 126.865C80.3152 124.988 77.3285 123.708 72.9765 123.025L67.7285 122.257C64.6565 121.831 61.8405 121.191 59.2805 120.337C56.7205 119.399 54.4592 118.204 52.4965 116.753C50.6192 115.217 49.1259 113.34 48.0165 111.121C46.9925 108.903 46.4805 106.257 46.4805 103.185C46.4805 99.9427 47.0779 97.1267 48.2725 94.7374C49.4672 92.2627 51.0885 90.2147 53.1365 88.5934C55.2699 86.972 57.7872 85.7774 60.6885 85.0094C63.5899 84.156 66.7045 83.7294 70.0325 83.7294C75.4085 83.7294 79.8885 84.668 83.4725 86.5453C87.1419 88.4227 90.3419 91.0254 93.0725 94.3534L86.2885 100.497C84.8379 98.4494 82.7045 96.6147 79.8885 94.9934C77.0725 93.2867 73.5312 92.4334 69.2645 92.4334C64.9979 92.4334 61.7552 93.372 59.5365 95.2494C57.4032 97.0414 56.3365 99.516 56.3365 102.673C56.3365 105.916 57.4032 108.263 59.5365 109.713C61.7552 111.164 64.9125 112.231 69.0085 112.913L74.1285 113.681C81.4672 114.791 86.6725 116.924 89.7445 120.081C92.8165 123.153 94.3525 127.207 94.3525 132.241C94.3525 138.641 92.1765 143.676 87.8245 147.345C83.4725 151.015 77.4992 152.849 69.9045 152.849ZM112.44 85.2654H122.68V96.0174H123.192C124.898 91.836 127.373 88.764 130.616 86.8014C133.944 84.7534 137.912 83.7294 142.52 83.7294C146.616 83.7294 150.328 84.54 153.656 86.1614C156.984 87.7827 159.8 90.0867 162.104 93.0734C164.493 96.06 166.285 99.6867 167.48 103.953C168.76 108.22 169.4 112.999 169.4 118.289C169.4 123.58 168.76 128.359 167.48 132.625C166.285 136.892 164.493 140.519 162.104 143.505C159.8 146.492 156.984 148.796 153.656 150.417C150.328 152.039 146.616 152.849 142.52 152.849C133.56 152.849 127.117 148.753 123.192 140.561H122.68V176.913H112.44V85.2654ZM139.704 143.633C145.506 143.633 150.072 141.841 153.4 138.257C156.728 134.588 158.392 129.809 158.392 123.921V112.657C158.392 106.769 156.728 102.033 153.4 98.4494C150.072 94.78 145.506 92.9454 139.704 92.9454C137.4 92.9454 135.181 93.2867 133.048 93.9694C131 94.5667 129.208 95.42 127.672 96.5294C126.136 97.6387 124.898 99.004 123.96 100.625C123.106 102.161 122.68 103.825 122.68 105.617V130.193C122.68 132.327 123.106 134.247 123.96 135.953C124.898 137.575 126.136 138.983 127.672 140.177C129.208 141.287 131 142.14 133.048 142.737C135.181 143.335 137.4 143.633 139.704 143.633Z" fill="black" fill-opacity="0.5"/>
<path d="M211.522 152.849C206.999 152.849 202.903 152.039 199.234 150.417C195.65 148.796 192.535 146.492 189.89 143.505C187.33 140.433 185.324 136.807 183.874 132.625C182.508 128.359 181.826 123.58 181.826 118.289C181.826 113.084 182.508 108.348 183.874 104.081C185.324 99.8147 187.33 96.188 189.89 93.2014C192.535 90.1294 195.65 87.7827 199.234 86.1614C202.903 84.54 206.999 83.7294 211.522 83.7294C215.959 83.7294 219.927 84.54 223.426 86.1614C226.924 87.7827 229.911 90.044 232.386 92.9454C234.86 95.7614 236.738 99.132 238.018 103.057C239.383 106.983 240.066 111.292 240.066 115.985V120.849H192.578V123.921C192.578 126.737 193.004 129.383 193.858 131.857C194.796 134.247 196.076 136.337 197.698 138.129C199.404 139.921 201.452 141.329 203.842 142.353C206.316 143.377 209.09 143.889 212.162 143.889C216.343 143.889 219.97 142.908 223.042 140.945C226.199 138.983 228.631 136.167 230.338 132.497L237.634 137.745C235.5 142.268 232.172 145.937 227.65 148.753C223.127 151.484 217.751 152.849 211.522 152.849ZM211.522 92.3054C208.706 92.3054 206.146 92.8174 203.842 93.8414C201.538 94.78 199.532 96.1454 197.826 97.9374C196.204 99.7294 194.924 101.863 193.986 104.337C193.047 106.727 192.578 109.372 192.578 112.273V113.169H229.058V111.761C229.058 105.873 227.436 101.18 224.194 97.6814C221.036 94.0974 216.812 92.3054 211.522 92.3054ZM256.94 151.313V85.2654H267.18V96.0174H267.692C269.313 92.2627 271.574 89.276 274.476 87.0574C277.462 84.8387 281.43 83.7294 286.38 83.7294C293.206 83.7294 298.582 85.948 302.508 90.3854C306.518 94.7374 308.524 100.924 308.524 108.945V151.313H298.284V110.737C298.284 98.876 293.292 92.9454 283.308 92.9454C281.26 92.9454 279.254 93.2014 277.292 93.7134C275.414 94.2254 273.708 94.9934 272.172 96.0174C270.636 97.0414 269.398 98.364 268.46 99.9854C267.606 101.521 267.18 103.356 267.18 105.489V151.313H256.94ZM349.53 152.849C343.386 152.849 338.223 151.697 334.042 149.393C329.946 147.004 326.404 143.847 323.418 139.921L330.714 134.033C333.274 137.276 336.132 139.793 339.29 141.585C342.447 143.292 346.116 144.145 350.298 144.145C354.65 144.145 358.02 143.207 360.41 141.329C362.884 139.452 364.122 136.807 364.122 133.393C364.122 130.833 363.268 128.657 361.562 126.865C359.94 124.988 356.954 123.708 352.602 123.025L347.354 122.257C344.282 121.831 341.466 121.191 338.906 120.337C336.346 119.399 334.084 118.204 332.122 116.753C330.244 115.217 328.751 113.34 327.642 111.121C326.618 108.903 326.106 106.257 326.106 103.185C326.106 99.9427 326.703 97.1267 327.898 94.7374C329.092 92.2627 330.714 90.2147 332.762 88.5934C334.895 86.972 337.412 85.7774 340.314 85.0094C343.215 84.156 346.33 83.7294 349.658 83.7294C355.034 83.7294 359.514 84.668 363.098 86.5453C366.767 88.4227 369.967 91.0254 372.698 94.3534L365.914 100.497C364.463 98.4494 362.33 96.6147 359.514 94.9934C356.698 93.2867 353.156 92.4334 348.89 92.4334C344.623 92.4334 341.38 93.372 339.162 95.2494C337.028 97.0414 335.962 99.516 335.962 102.673C335.962 105.916 337.028 108.263 339.162 109.713C341.38 111.164 344.538 112.231 348.634 112.913L353.754 113.681C361.092 114.791 366.298 116.924 369.37 120.081C372.442 123.153 373.978 127.207 373.978 132.241C373.978 138.641 371.802 143.676 367.45 147.345C363.098 151.015 357.124 152.849 349.53 152.849ZM417.025 152.849C412.587 152.849 408.534 152.039 404.865 150.417C401.195 148.796 398.038 146.492 395.393 143.505C392.833 140.433 390.827 136.807 389.377 132.625C387.926 128.359 387.201 123.58 387.201 118.289C387.201 113.084 387.926 108.348 389.377 104.081C390.827 99.8147 392.833 96.188 395.393 93.2014C398.038 90.1294 401.195 87.7827 404.865 86.1614C408.534 84.54 412.587 83.7294 417.025 83.7294C421.462 83.7294 425.473 84.54 429.057 86.1614C432.726 87.7827 435.883 90.1294 438.529 93.2014C441.174 96.188 443.222 99.8147 444.673 104.081C446.123 108.348 446.849 113.084 446.849 118.289C446.849 123.58 446.123 128.359 444.673 132.625C443.222 136.807 441.174 140.433 438.529 143.505C435.883 146.492 432.726 148.796 429.057 150.417C425.473 152.039 421.462 152.849 417.025 152.849ZM417.025 143.761C422.571 143.761 427.094 142.055 430.593 138.641C434.091 135.228 435.841 130.023 435.841 123.025V113.553C435.841 106.556 434.091 101.351 430.593 97.9374C427.094 94.524 422.571 92.8174 417.025 92.8174C411.478 92.8174 406.955 94.524 403.457 97.9374C399.958 101.351 398.209 106.556 398.209 113.553V123.025C398.209 130.023 399.958 135.228 403.457 138.641C406.955 142.055 411.478 143.761 417.025 143.761ZM467.718 152.849C464.987 152.849 462.982 152.167 461.702 150.801C460.507 149.436 459.91 147.644 459.91 145.425V143.761C459.91 141.543 460.507 139.751 461.702 138.385C462.982 137.02 464.987 136.337 467.718 136.337C470.448 136.337 472.411 137.02 473.606 138.385C474.886 139.751 475.526 141.543 475.526 143.761V145.425C475.526 147.644 474.886 149.436 473.606 150.801C472.411 152.167 470.448 152.849 467.718 152.849ZM496.065 151.313V85.2654H506.305V97.4254H506.945C508.139 94.268 510.273 91.452 513.345 88.9774C516.417 86.5027 520.641 85.2654 526.017 85.2654H529.985V95.5054H523.969C518.422 95.5054 514.07 96.572 510.913 98.7054C507.841 100.753 506.305 103.356 506.305 106.513V151.313H496.065ZM562.905 152.849C556.761 152.849 551.598 151.697 547.417 149.393C543.321 147.004 539.779 143.847 536.793 139.921L544.089 134.033C546.649 137.276 549.507 139.793 552.665 141.585C555.822 143.292 559.491 144.145 563.673 144.145C568.025 144.145 571.395 143.207 573.785 141.329C576.259 139.452 577.497 136.807 577.497 133.393C577.497 130.833 576.643 128.657 574.937 126.865C573.315 124.988 570.329 123.708 565.977 123.025L560.729 122.257C557.657 121.831 554.841 121.191 552.281 120.337C549.721 119.399 547.459 118.204 545.497 116.753C543.619 115.217 542.126 113.34 541.017 111.121C539.993 108.903 539.481 106.257 539.481 103.185C539.481 99.9427 540.078 97.1267 541.273 94.7374C542.467 92.2627 544.089 90.2147 546.137 88.5934C548.27 86.972 550.787 85.7774 553.689 85.0094C556.59 84.156 559.705 83.7294 563.033 83.7294C568.409 83.7294 572.889 84.668 576.473 86.5453C580.142 88.4227 583.342 91.0254 586.073 94.3534L579.289 100.497C577.838 98.4494 575.705 96.6147 572.889 94.9934C570.073 93.2867 566.531 92.4334 562.265 92.4334C557.998 92.4334 554.755 93.372 552.537 95.2494C550.403 97.0414 549.337 99.516 549.337 102.673C549.337 105.916 550.403 108.263 552.537 109.713C554.755 111.164 557.913 112.231 562.009 112.913L567.129 113.681C574.467 114.791 579.673 116.924 582.745 120.081C585.817 123.153 587.353 127.207 587.353 132.241C587.353 138.641 585.177 143.676 580.825 147.345C576.473 151.015 570.499 152.849 562.905 152.849Z" fill="black"/>
<path d="M159.622 140.561H159.11C155.099 148.753 148.656 152.849 139.782 152.849C135.686 152.849 131.974 152.039 128.646 150.417C125.318 148.796 122.459 146.492 120.07 143.505C117.766 140.519 115.974 136.892 114.694 132.625C113.499 128.359 112.902 123.58 112.902 118.289C112.902 112.999 113.499 108.22 114.694 103.953C115.974 99.6867 117.766 96.06 120.07 93.0734C122.459 90.0867 125.318 87.7827 128.646 86.1614C131.974 84.54 135.686 83.7294 139.782 83.7294C144.39 83.7294 148.315 84.7534 151.558 86.8014C154.886 88.764 157.403 91.836 159.11 96.0174H159.622V56.5934H169.862V151.313H159.622V140.561ZM142.598 143.633C144.902 143.633 147.078 143.335 149.126 142.737C151.259 142.14 153.094 141.287 154.63 140.177C156.166 138.983 157.36 137.575 158.214 135.953C159.152 134.247 159.622 132.327 159.622 130.193V105.617C159.622 103.825 159.152 102.161 158.214 100.625C157.36 99.004 156.166 97.6387 154.63 96.5294C153.094 95.42 151.259 94.5667 149.126 93.9694C147.078 93.2867 144.902 92.9454 142.598 92.9454C136.795 92.9454 132.23 94.78 128.902 98.4494C125.574 102.033 123.91 106.769 123.91 112.657V123.921C123.91 129.809 125.574 134.588 128.902 138.257C132.23 141.841 136.795 143.633 142.598 143.633Z" fill="black" fill-opacity="0.5"/>
</svg>
