<svg width="637" height="189" viewBox="0 0 637 189" fill="none" xmlns="http://www.w3.org/2000/svg">
<rect width="637" height="189" rx="49" fill="#D9D9D9"/>
<path d="M69.72 132.536C63.576 132.536 58.4133 131.384 54.232 129.08C50.136 126.691 46.5947 123.533 43.608 119.608L50.904 113.72C53.464 116.963 56.3227 119.48 59.48 121.272C62.6373 122.979 66.3067 123.832 70.488 123.832C74.84 123.832 78.2107 122.893 80.6 121.016C83.0747 119.139 84.312 116.493 84.312 113.08C84.312 110.52 83.4587 108.344 81.752 106.552C80.1307 104.675 77.144 103.395 72.792 102.712L67.544 101.944C64.472 101.517 61.656 100.877 59.096 100.024C56.536 99.0853 54.2747 97.8907 52.312 96.44C50.4347 94.904 48.9413 93.0267 47.832 90.808C46.808 88.5893 46.296 85.944 46.296 82.872C46.296 79.6293 46.8933 76.8133 48.088 74.424C49.2827 71.9493 50.904 69.9013 52.952 68.28C55.0853 66.6587 57.6027 65.464 60.504 64.696C63.4053 63.8427 66.52 63.416 69.848 63.416C75.224 63.416 79.704 64.3547 83.288 66.232C86.9573 68.1093 90.1573 70.712 92.888 74.04L86.104 80.184C84.6533 78.136 82.52 76.3013 79.704 74.68C76.888 72.9733 73.3467 72.12 69.08 72.12C64.8133 72.12 61.5707 73.0587 59.352 74.936C57.2187 76.728 56.152 79.2027 56.152 82.36C56.152 85.6027 57.2187 87.9493 59.352 89.4C61.5707 90.8507 64.728 91.9173 68.824 92.6L73.944 93.368C81.2827 94.4773 86.488 96.6107 89.56 99.768C92.632 102.84 94.168 106.893 94.168 111.928C94.168 118.328 91.992 123.363 87.64 127.032C83.288 130.701 77.3147 132.536 69.72 132.536ZM112.255 64.952H122.495V75.704H123.007C124.714 71.5227 127.188 68.4507 130.431 66.488C133.759 64.44 137.727 63.416 142.335 63.416C146.431 63.416 150.143 64.2267 153.471 65.848C156.799 67.4693 159.615 69.7733 161.919 72.76C164.308 75.7467 166.1 79.3733 167.295 83.64C168.575 87.9067 169.215 92.6853 169.215 97.976C169.215 103.267 168.575 108.045 167.295 112.312C166.1 116.579 164.308 120.205 161.919 123.192C159.615 126.179 156.799 128.483 153.471 130.104C150.143 131.725 146.431 132.536 142.335 132.536C133.375 132.536 126.932 128.44 123.007 120.248H122.495V156.6H112.255V64.952ZM139.519 123.32C145.322 123.32 149.887 121.528 153.215 117.944C156.543 114.275 158.207 109.496 158.207 103.608V92.344C158.207 86.456 156.543 81.72 153.215 78.136C149.887 74.4667 145.322 72.632 139.519 72.632C137.215 72.632 134.996 72.9733 132.863 73.656C130.815 74.2533 129.023 75.1067 127.487 76.216C125.951 77.3253 124.714 78.6907 123.775 80.312C122.922 81.848 122.495 83.512 122.495 85.304V109.88C122.495 112.013 122.922 113.933 123.775 115.64C124.714 117.261 125.951 118.669 127.487 119.864C129.023 120.973 130.815 121.827 132.863 122.424C134.996 123.021 137.215 123.32 139.519 123.32Z" fill="black" fill-opacity="0.5"/>
<path d="M211.337 132.536C206.814 132.536 202.718 131.725 199.049 130.104C195.465 128.483 192.35 126.179 189.705 123.192C187.145 120.12 185.14 116.493 183.689 112.312C182.324 108.045 181.641 103.267 181.641 97.976C181.641 92.7707 182.324 88.0347 183.689 83.768C185.14 79.5013 187.145 75.8747 189.705 72.888C192.35 69.816 195.465 67.4693 199.049 65.848C202.718 64.2267 206.814 63.416 211.337 63.416C215.774 63.416 219.742 64.2267 223.241 65.848C226.74 67.4693 229.726 69.7307 232.201 72.632C234.676 75.448 236.553 78.8187 237.833 82.744C239.198 86.6693 239.881 90.9787 239.881 95.672V100.536H192.393V103.608C192.393 106.424 192.82 109.069 193.673 111.544C194.612 113.933 195.892 116.024 197.513 117.816C199.22 119.608 201.268 121.016 203.657 122.04C206.132 123.064 208.905 123.576 211.977 123.576C216.158 123.576 219.785 122.595 222.857 120.632C226.014 118.669 228.446 115.853 230.153 112.184L237.449 117.432C235.316 121.955 231.988 125.624 227.465 128.44C222.942 131.171 217.566 132.536 211.337 132.536ZM211.337 71.992C208.521 71.992 205.961 72.504 203.657 73.528C201.353 74.4667 199.348 75.832 197.641 77.624C196.02 79.416 194.74 81.5493 193.801 84.024C192.862 86.4133 192.393 89.0587 192.393 91.96V92.856H228.873V91.448C228.873 85.56 227.252 80.8667 224.009 77.368C220.852 73.784 216.628 71.992 211.337 71.992ZM256.755 131V64.952H266.995V75.704H267.507C269.128 71.9493 271.39 68.9627 274.291 66.744C277.278 64.5253 281.246 63.416 286.195 63.416C293.022 63.416 298.398 65.6347 302.323 70.072C306.334 74.424 308.339 80.6107 308.339 88.632V131H298.099V90.424C298.099 78.5627 293.107 72.632 283.123 72.632C281.075 72.632 279.07 72.888 277.107 73.4C275.23 73.912 273.523 74.68 271.987 75.704C270.451 76.728 269.214 78.0507 268.275 79.672C267.422 81.208 266.995 83.0427 266.995 85.176V131H256.755ZM349.345 132.536C343.201 132.536 338.038 131.384 333.857 129.08C329.761 126.691 326.22 123.533 323.233 119.608L330.529 113.72C333.089 116.963 335.948 119.48 339.105 121.272C342.262 122.979 345.932 123.832 350.113 123.832C354.465 123.832 357.836 122.893 360.225 121.016C362.7 119.139 363.937 116.493 363.937 113.08C363.937 110.52 363.084 108.344 361.377 106.552C359.756 104.675 356.769 103.395 352.417 102.712L347.169 101.944C344.097 101.517 341.281 100.877 338.721 100.024C336.161 99.0853 333.9 97.8907 331.937 96.44C330.06 94.904 328.566 93.0267 327.457 90.808C326.433 88.5893 325.921 85.944 325.921 82.872C325.921 79.6293 326.518 76.8133 327.713 74.424C328.908 71.9493 330.529 69.9013 332.577 68.28C334.71 66.6587 337.228 65.464 340.129 64.696C343.03 63.8427 346.145 63.416 349.473 63.416C354.849 63.416 359.329 64.3547 362.913 66.232C366.582 68.1093 369.782 70.712 372.513 74.04L365.729 80.184C364.278 78.136 362.145 76.3013 359.329 74.68C356.513 72.9733 352.972 72.12 348.705 72.12C344.438 72.12 341.196 73.0587 338.977 74.936C336.844 76.728 335.777 79.2027 335.777 82.36C335.777 85.6027 336.844 87.9493 338.977 89.4C341.196 90.8507 344.353 91.9173 348.449 92.6L353.569 93.368C360.908 94.4773 366.113 96.6107 369.185 99.768C372.257 102.84 373.793 106.893 373.793 111.928C373.793 118.328 371.617 123.363 367.265 127.032C362.913 130.701 356.94 132.536 349.345 132.536ZM416.84 132.536C412.403 132.536 408.349 131.725 404.68 130.104C401.011 128.483 397.853 126.179 395.208 123.192C392.648 120.12 390.643 116.493 389.192 112.312C387.741 108.045 387.016 103.267 387.016 97.976C387.016 92.7707 387.741 88.0347 389.192 83.768C390.643 79.5013 392.648 75.8747 395.208 72.888C397.853 69.816 401.011 67.4693 404.68 65.848C408.349 64.2267 412.403 63.416 416.84 63.416C421.277 63.416 425.288 64.2267 428.872 65.848C432.541 67.4693 435.699 69.816 438.344 72.888C440.989 75.8747 443.037 79.5013 444.488 83.768C445.939 88.0347 446.664 92.7707 446.664 97.976C446.664 103.267 445.939 108.045 444.488 112.312C443.037 116.493 440.989 120.12 438.344 123.192C435.699 126.179 432.541 128.483 428.872 130.104C425.288 131.725 421.277 132.536 416.84 132.536ZM416.84 123.448C422.387 123.448 426.909 121.741 430.408 118.328C433.907 114.915 435.656 109.709 435.656 102.712V93.24C435.656 86.2427 433.907 81.0373 430.408 77.624C426.909 74.2107 422.387 72.504 416.84 72.504C411.293 72.504 406.771 74.2107 403.272 77.624C399.773 81.0373 398.024 86.2427 398.024 93.24V102.712C398.024 109.709 399.773 114.915 403.272 118.328C406.771 121.741 411.293 123.448 416.84 123.448Z" fill="black" fill-opacity="0.75"/>
<path d="M467.533 132.536C464.802 132.536 462.797 131.853 461.517 130.488C460.322 129.123 459.725 127.331 459.725 125.112V123.448C459.725 121.229 460.322 119.437 461.517 118.072C462.797 116.707 464.802 116.024 467.533 116.024C470.264 116.024 472.226 116.707 473.421 118.072C474.701 119.437 475.341 121.229 475.341 123.448V125.112C475.341 127.331 474.701 129.123 473.421 130.488C472.226 131.853 470.264 132.536 467.533 132.536ZM495.88 131V64.952H506.12V77.112H506.76C507.955 73.9547 510.088 71.1387 513.16 68.664C516.232 66.1893 520.456 64.952 525.832 64.952H529.8V75.192H523.784C518.237 75.192 513.885 76.2587 510.728 78.392C507.656 80.44 506.12 83.0427 506.12 86.2V131H495.88ZM562.72 132.536C556.576 132.536 551.413 131.384 547.232 129.08C543.136 126.691 539.595 123.533 536.608 119.608L543.904 113.72C546.464 116.963 549.323 119.48 552.48 121.272C555.637 122.979 559.307 123.832 563.488 123.832C567.84 123.832 571.211 122.893 573.6 121.016C576.075 119.139 577.312 116.493 577.312 113.08C577.312 110.52 576.459 108.344 574.752 106.552C573.131 104.675 570.144 103.395 565.792 102.712L560.544 101.944C557.472 101.517 554.656 100.877 552.096 100.024C549.536 99.0853 547.275 97.8907 545.312 96.44C543.435 94.904 541.941 93.0267 540.832 90.808C539.808 88.5893 539.296 85.944 539.296 82.872C539.296 79.6293 539.893 76.8133 541.088 74.424C542.283 71.9493 543.904 69.9013 545.952 68.28C548.085 66.6587 550.603 65.464 553.504 64.696C556.405 63.8427 559.52 63.416 562.848 63.416C568.224 63.416 572.704 64.3547 576.288 66.232C579.957 68.1093 583.157 70.712 585.888 74.04L579.104 80.184C577.653 78.136 575.52 76.3013 572.704 74.68C569.888 72.9733 566.347 72.12 562.08 72.12C557.813 72.12 554.571 73.0587 552.352 74.936C550.219 76.728 549.152 79.2027 549.152 82.36C549.152 85.6027 550.219 87.9493 552.352 89.4C554.571 90.8507 557.728 91.9173 561.824 92.6L566.944 93.368C574.283 94.4773 579.488 96.6107 582.56 99.768C585.632 102.84 587.168 106.893 587.168 111.928C587.168 118.328 584.992 123.363 580.64 127.032C576.288 130.701 570.315 132.536 562.72 132.536Z" fill="black" fill-opacity="0.3"/>
<path d="M159.437 120.248H158.925C154.914 128.44 148.472 132.536 139.597 132.536C135.501 132.536 131.789 131.725 128.461 130.104C125.133 128.483 122.274 126.179 119.885 123.192C117.581 120.205 115.789 116.579 114.509 112.312C113.314 108.045 112.717 103.267 112.717 97.976C112.717 92.6853 113.314 87.9067 114.509 83.64C115.789 79.3733 117.581 75.7467 119.885 72.76C122.274 69.7733 125.133 67.4693 128.461 65.848C131.789 64.2267 135.501 63.416 139.597 63.416C144.205 63.416 148.13 64.44 151.373 66.488C154.701 68.4507 157.218 71.5227 158.925 75.704H159.437V36.28H169.677V131H159.437V120.248ZM142.413 123.32C144.717 123.32 146.893 123.021 148.941 122.424C151.074 121.827 152.909 120.973 154.445 119.864C155.981 118.669 157.176 117.261 158.029 115.64C158.968 113.933 159.437 112.013 159.437 109.88V85.304C159.437 83.512 158.968 81.848 158.029 80.312C157.176 78.6907 155.981 77.3253 154.445 76.216C152.909 75.1067 151.074 74.2533 148.941 73.656C146.893 72.9733 144.717 72.632 142.413 72.632C136.61 72.632 132.045 74.4667 128.717 78.136C125.389 81.72 123.725 86.456 123.725 92.344V103.608C123.725 109.496 125.389 114.275 128.717 117.944C132.045 121.528 136.61 123.32 142.413 123.32Z" fill="black" fill-opacity="0.5"/>
</svg>
